PathFileType	4	(X/Y/Z)	C:/Users/beibeiliu/ov580/test_trc/User3\sequence.35_training_dense_left.trc
DataRate	CameraRate	NumFrames	NumMarkers	Units	OrigDataRate	OrigDataStartFrame	OrigNumFrames
120	120	15	19	mm	120	1	74
Frame#	Time	ThumbCMC			ThumbMCP			ThumbIP			ThumbTip			IndexMCP			IndexPIP			IndexTip			MiddleMCP			MiddlePIP			MiddleTip			RingMCP			RingPIP			RingTip			PinkyMCP			PinkyPIP			PinkyTip			BackHand1			BackHand2			BackHand3	
		X0	Y0	Z0	X1	Y1	Z1	X2	Y2	Z2	X3	Y3	Z3	X4	Y4	Z4	X5	Y5	Z5	X6	Y6	Z6	X7	Y7	Z7	X8	Y8	Z8	X9	Y9	Z9	X10	Y10	Z10	X11	Y11	Z11	X12	Y12	Z12	X13	Y13	Z13	X14	Y14	Z14	X15	Y15	Z15	X16	Y16	Z16	X17	Y17	Z17	X18	Y18	Z18	
0	0	-169.368	-24.4588	-1.12775	-174.639	-13.2388	-25.903	-185.665	-3.71057	-52.5611	-191.684	4.98575	-74.1163	-126.797	-41.1366	-70.1539	-118.49	-33.12	-93.8894	-104.622	-24.7602	-120.276	-101.199	-29.5312	-61.1977	-91.5898	0.55649	-51.4598	-111.314	-10.965	-18.9982	-87.9142	-30.1832	-46.7519	-83.2758	-5.12755	-33.4604	-105.405	-15.8573	-9.07264	-73.6253	-37.2208	-29.9603	-75.6739	-14.1009	-20.6068	-99.6638	-23.6317	-2.8273	-116.493	-69.8347	-13.3099	-129.201	-70.0437	21.668	-150.125	-56.6025	-7.48761	
1	0.00833333	-170.444	-36.031	6.78285	-181.001	-27.4936	-17.8284	-188.165	-20.4645	-43.1008	-199.484	-12.1056	-65.06	-131.53	-51.9676	-63.1309	-122.938	-45.2478	-89.8727	-111.85	-36.1919	-113.891	-107.182	-34.6525	-56.5282	-100.821	-6.25657	-49.5862	-117.182	-17.2029	-13.0969	-90.1167	-38.0334	-39.2525	-92.0845	-9.76213	-28.9519	-113.977	-24.3893	-2.01392	-81.1612	-43.2354	-23.6564	-85.5104	-15.4038	-12.2461	-102.717	-27.2935	7.02997	-115.361	-76.2476	-1.03322	-127.669	-77.4685	27.3145	-150.841	-65.2624	0.165121	
2	0.0166667	-172.585	-40.865	17.027	-182.941	-33.8298	-6.4983	-195.974	-27.5255	-37.7912	-202.524	-20.7935	-52.595	-138.274	-53.7544	-60.9216	-128.677	-49.057	-80.8801	-123.683	-40.4352	-105.588	-110.912	-40.4122	-48.7546	-107.103	-8.26795	-42.894	-123.462	-17.9615	-8.4445	-99.4009	-39.9892	-34.5883	-99.2742	-10.3085	-19.3922	-115.862	-26.2733	4.45999	-82.5832	-42.1423	-19.7239	-88.4457	-16.394	-7.58439	-105.439	-29.6852	11.0498	-114.841	-79.167	5.0173	-126.601	-78.2627	33.9553	-150.698	-69.5765	11.1322	
3	0.025	-176.17	-42.2474	19.1357	-184.18	-35.4368	-2.09738	-197.159	-29.2911	-28.1652	-206.892	-22.41	-43.313	-138.407	-54.0033	-52.7464	-134.209	-47.4148	-79.1253	-122.759	-40.9325	-96.429	-116.432	-39.458	-42.6969	-111.126	-5.9847	-35.0558	-124.012	-18.7684	-1.57272	-101.867	-35.3739	-29.8791	-101.537	-8.67494	-13.6359	-117.911	-20.7297	9.19193	-89.3409	-41.2896	-14.341	-93.9545	-13.6904	-5.92335	-108.211	-25.9718	18.6176	-115.826	-76.2588	7.85277	-122.526	-78.6672	40.0565	-151.88	-69.6837	14.5306	
4	0.0333333	-173.568	-38.4553	30.6501	-186.569	-32.0509	3.27988	-201.705	-25.5373	-19.3222	-211.641	-19.1104	-37.3726	-143.973	-49.4957	-44.1889	-136.694	-43.814	-67.6209	-129.515	-35.1187	-91.6158	-118.614	-29.7225	-40.4767	-116.618	0.0429058	-27.0299	-127.854	-12.2862	4.35586	-99.6119	-30.5821	-20.7218	-105.495	-2.80207	-5.80801	-119.964	-22.0289	16.8258	-85.7801	-32.8926	-7.94748	-95.511	-9.62311	-0.911782	-109.241	-21.8062	25.0705	-116.255	-73.3253	14.4201	-127.932	-73.9456	43.1704	-151.621	-64.9675	21.1767	
5	0.0416667	-175.222	-34.5856	34.1111	-187.678	-27.9737	11.9599	-201.011	-21.896	-15.1613	-214.095	-14.4663	-30.6221	-146.855	-43.3029	-35.8811	-134.308	-36.6751	-62.7756	-130.796	-28.0648	-83.8046	-117.03	-24.5965	-30.4123	-117.32	5.56098	-21.8754	-127.244	-8.65413	12.2651	-100.873	-24.424	-13.2079	-104.942	1.91644	3.09669	-119.563	-14.7622	24.6362	-89.2972	-28.0221	-1.73104	-95.8662	-3.91794	5.68742	-109.459	-17.0652	30.7346	-121.568	-67.124	23.7514	-127.346	-68.8817	52.6778	-156.516	-59.4212	28.6892	
6	0.05	-181.634	-32.0605	41.1038	-194.134	-24.5649	18.296	-204.059	-16.3274	-3.30819	-215.161	-10.4855	-22.3586	-144.994	-39.012	-32.202	-142.93	-31.6074	-53.2765	-132.455	-22.7799	-76.0818	-119.828	-19.8493	-23.2791	-121.118	9.13753	-16.5382	-133.759	-5.26758	20.7134	-109.404	-21.9934	-7.05533	-108.812	5.77206	7.26229	-128.66	-12.7138	30.8054	-90.7773	-23.213	6.3119	-101.333	1.02267	17.6383	-114.775	-14.4859	37.9507	-125.725	-61.486	30.4714	-129.855	-66.6012	60.9285	-157.633	-58.8012	37.08	
7	0.0583333	-187.079	-32.9249	50.7708	-198.656	-24.4247	26.5602	-212.901	-18.0639	-1.84015	-223.419	-10.4085	-16.8822	-151.188	-38.9807	-26.7283	-146.26	-29.3042	-52.73	-136.34	-22.1871	-71.0989	-126.759	-18.804	-18.6605	-125.715	9.75184	-10.1457	-142.344	-6.56485	25.6467	-114.235	-19.989	-3.09049	-112.016	5.95751	13.7577	-129.137	-10.2094	36.2048	-95.9505	-20.3583	9.06226	-104.857	1.38483	19.9715	-120.677	-16.6148	42.955	-124.914	-62.6366	36.3289	-133.561	-66.3534	63.6264	-164.606	-59.1402	40.0105	
8	0.0666667	-187.37	-35.2077	49.9476	-198.298	-27.8843	25.414	-209.508	-21.6761	1.40686	-221.599	-15.2644	-20.0534	-153.419	-42.6403	-22.3899	-146.157	-33.524	-50.9183	-140.706	-22.2985	-74.2837	-129.674	-25.0417	-15.5838	-125.772	7.5648	-4.68499	-140.958	-7.13688	27.1127	-113.496	-21.5496	-1.16442	-114.022	3.98822	14.6016	-134.466	-13.3151	37.0006	-97.3482	-26.501	14.0206	-106.294	-0.888582	21.6858	-121.644	-16.3634	46.2615	-128.095	-64.068	36.6864	-134.883	-68.3297	69.2844	-163.832	-60.2477	44.0259	
9	0.075	-184.204	-38.571	53.0536	-200.665	-31.3491	26.909	-212.987	-25.9144	4.22086	-218.029	-18.227	-15.4445	-152.36	-44.934	-22.6371	-144.259	-38.5199	-44.6183	-137.072	-28.6648	-69.7591	-128.964	-25.9272	-16.0027	-128.35	5.36649	-6.873	-140.735	-8.71792	27.2112	-114.899	-23.5091	-1.88134	-111.51	1.67106	14.3747	-131.282	-14.8649	38.2403	-100.471	-30.1697	14.7122	-106.468	-2.96534	25.461	-121.336	-18.2634	45.6088	-124.06	-67.8482	39.3183	-132.665	-71.5386	66.599	-163.443	-63.6087	45.726	
10	0.0833333	-184.02	-42.1239	52.9701	-196.06	-34.9315	29.8118	-208.36	-29.0626	4.08657	-218.592	-23.0553	-15.6906	-147.805	-47.8645	-20.2417	-144.438	-40.6418	-43.9779	-133.637	-31.0937	-68.8277	-125.553	-27.8148	-14.132	-125.934	1.03825	-5.35257	-135.715	-12.6976	29.6708	-107.726	-27.9764	4.12108	-110.816	-1.22192	16.5247	-131.392	-18.5112	40.8609	-98.6612	-32.2964	17.0994	-105.315	-5.22461	26.9044	-119.752	-20.8014	47.669	-122.526	-70.5964	41.9516	-131.022	-72.9398	68.0142	-159.468	-67.6514	47.4099	
11	0.0916667	-180.771	-44.5238	60.7609	-198.277	-38.2267	35.7603	-209.741	-33.0034	10.0224	-214.238	-26.2236	-9.84831	-148.79	-51.5405	-16.5753	-143.021	-44.0211	-41.6429	-134.525	-36.5031	-61.1647	-125.651	-33.9732	-7.96418	-123.428	-1.92728	1.36336	-138.238	-19.41	35.5607	-108.866	-33.5273	8.8691	-112.974	-4.87876	18.8359	-128.145	-19.859	45.7419	-99.0881	-31.9128	18.598	-104.647	-10.0871	29.009	-119.087	-25.731	54.5586	-122.263	-75.6118	44.2412	-129.418	-78.565	74.799	-161.29	-68.6759	49.6355	
12	0.1	-181.677	-51.5307	62.0399	-194.123	-43.1119	39.9178	-211.368	-37.5099	14.937	-219.018	-31.8545	-4.76768	-150.732	-57.013	-12.2852	-146.631	-49.9749	-36.0872	-137.535	-42.3392	-55.5198	-128.371	-37.2859	-3.81563	-125.825	-7.06084	8.29202	-138.124	-21.9548	40.0636	-108.531	-37.8334	13.734	-116.616	-9.33994	26.345	-131.047	-26.4037	50.4837	-96.9865	-40.5416	27.9589	-104.123	-15.4425	35.4469	-122.858	-30.8548	59.2417	-127.575	-78.158	47.6198	-134.556	-83.0414	81.6585	-161.706	-74.3565	57.7802	
13	0.108333	-187.478	-54.6739	69.4468	-202.129	-48.9368	42.6796	-214.682	-44.22	16.9719	-222.116	-36.8484	-2.7036	-151.568	-62.5344	-3.82027	-148.266	-56.5459	-28.918	-138.841	-46.0731	-55.1117	-129.688	-41.0103	-1.17917	-130.65	-11.1129	10.6153	-143.228	-25.5232	42.6435	-114.275	-40.1667	15.5679	-116.48	-14.8421	27.9908	-134.014	-29.1005	53.2515	-103.245	-42.1236	27.6356	-110.125	-19.0986	42.1375	-125.818	-34.4462	61.3528	-129.706	-82.3499	51.8058	-137.208	-88.8181	82.7144	-165.794	-81.4052	63.0784	
14	0.116667	-190.409	-55.3178	68.6182	-202.313	-48.6461	46.0866	-215.711	-43.5227	19.4015	-221.341	-37.7265	-0.908764	-151.862	-62.2465	-6.25811	-147.296	-55.9449	-29.4711	-139.884	-45.98	-53.7809	-133.052	-43.6244	0.636968	-131.835	-11.7376	8.57001	-143.538	-30.0684	44.4103	-116.021	-41.2075	16.1265	-118.162	-14.3828	29.9414	-135.354	-28.2137	52.3154	-100.309	-41.5879	29.6083	-107.598	-18.9402	39.9953	-126.409	-35.8174	64.4075	-128.489	-84.5365	55.7652	-139.049	-85.8145	82.7628	-165.295	-80.2869	61.1505	
